<svg id="canvas" width="344.900" height="237.970" viewBox="444.630 202.286 344.900 237.970" preserveAspectRatio="xMidYMid meet" class="h-full w-full max-w-4xl text-primary transition-opacity duration-300 opacity-100" xmlns="http://www.w3.org/2000/svg"><g id="canvas-strokes"><path d="M 468.02,296.73 C 467.57 300.04, 468.00 305.10, 467.88 313.31 C 467.75 321.52, 467.69 327.40, 467.40 337.79 C 467.11 348.19, 466.71 355.13, 466.42 365.29 C 466.12 375.45, 466.21 380.59, 465.93 388.58 C 465.65 396.58, 465.10 400.25, 465.03 405.26 C 464.95 410.26, 465.14 412.81, 465.54 413.60 C 465.94 414.39, 466.84 413.41, 467.02 409.20 C 467.20 404.99, 466.58 401.17, 466.45 392.56 C 466.33 383.94, 466.34 377.73, 466.40 366.13 C 466.47 354.53, 466.65 347.51, 466.76 334.56 C 466.88 321.60, 466.77 314.04, 466.96 301.36 C 467.16 288.69, 467.11 282.26, 467.73 271.18 C 468.35 260.10, 468.86 254.93, 470.06 245.96 C 471.27 236.98, 472.07 232.80, 473.75 226.31 C 475.42 219.82, 476.81 217.16, 478.43 213.50 C 480.05 209.84, 480.86 208.84, 481.87 208.00 C 482.89 207.16, 482.44 207.05, 483.50 209.30 C 484.56 211.54, 485.71 213.46, 487.17 219.22 C 488.62 224.98, 489.43 229.19, 490.78 238.09 C 492.13 246.98, 492.75 252.38, 493.92 263.71 C 495.09 275.04, 495.41 281.74, 496.62 294.73 C 497.84 307.72, 498.62 315.17, 499.99 328.65 C 501.36 342.14, 502.17 349.43, 503.47 362.14 C 504.78 374.86, 505.57 381.45, 506.51 392.24 C 507.44 403.03, 507.87 408.54, 508.16 416.10 C 508.44 423.66, 508.10 426.07, 507.94 430.05 C 507.77 434.02, 507.50 434.68, 507.32 435.98 C 507.15 437.28, 507.09 436.34, 507.08 436.53 C 507.07 436.72, 506.88 436.94, 507.27 436.94 C 507.67 436.94, 508.36 437.88, 509.03 436.52 C 509.70 435.17, 510.43 434.27, 510.64 430.17 C 510.84 426.06, 510.57 423.61, 510.04 416.00 C 509.52 408.38, 509.05 402.90, 508.00 392.10 C 506.95 381.30, 506.14 374.72, 504.80 362.00 C 503.46 349.29, 502.65 342.00, 501.30 328.52 C 499.95 315.04, 499.18 307.60, 498.04 294.61 C 496.89 281.61, 496.60 274.91, 495.59 263.55 C 494.58 252.18, 494.09 246.79, 492.99 237.79 C 491.90 228.78, 491.39 224.63, 490.11 218.54 C 488.84 212.46, 488.51 209.88, 486.63 207.36 C 484.74 204.84, 482.85 204.95, 480.69 205.94 C 478.52 206.93, 477.59 208.34, 475.79 212.31 C 473.99 216.29, 473.17 219.13, 471.70 225.82 C 470.22 232.51, 469.49 236.69, 468.41 245.75 C 467.33 254.81, 466.84 259.99, 466.28 271.10 C 465.71 282.22, 465.77 288.65, 465.57 301.34 C 465.37 314.03, 465.48 321.59, 465.28 334.54 C 465.09 347.49, 464.82 354.50, 464.59 366.11 C 464.35 377.71, 464.19 383.93, 464.12 392.57 C 464.04 401.20, 463.76 405.05, 464.21 409.29 C 464.66 413.52, 465.70 414.53, 466.37 413.74 C 467.04 412.95, 467.25 410.38, 467.57 405.36 C 467.89 400.34, 467.82 396.64, 467.96 388.64 C 468.11 380.63, 468.03 375.50, 468.30 365.34 C 468.56 355.19, 468.99 348.25, 469.29 337.85 C 469.58 327.45, 469.62 321.56, 469.79 313.34 C 469.97 305.13, 470.50 300.09, 470.15 296.77 C 469.79 293.44, 468.48 293.43, 468.02 296.73" style="stroke: black; fill: black; --darkreader-inline-stroke: var(--darkreader-text-000000, #e8e6e3); --darkreader-inline-fill: var(--darkreader-text-000000, #e8e6e3);" data-darkreader-inline-stroke="" data-darkreader-inline-fill=""/><path d="M 448.91,357.54 C 450.10 357.56, 451.08 357.62, 453.78 355.89 C 456.48 354.15, 458.06 352.18, 462.41 348.87 C 466.77 345.55, 469.76 343.16, 475.57 339.31 C 481.37 335.47, 484.74 333.27, 491.43 329.65 C 498.12 326.02, 502.50 324.27, 509.00 321.19 C 515.50 318.11, 518.73 316.56, 523.92 314.26 C 529.11 311.97, 531.67 310.86, 534.95 309.70 C 538.23 308.53, 539.00 308.19, 540.34 308.44 C 541.69 308.69, 541.35 308.97, 541.68 310.96 C 542.01 312.95, 541.99 314.17, 541.98 318.40 C 541.98 322.63, 541.76 325.92, 541.66 332.12 C 541.55 338.32, 541.38 342.46, 541.46 349.40 C 541.54 356.34, 541.56 360.18, 542.05 366.82 C 542.54 373.47, 542.88 377.18, 543.90 382.63 C 544.91 388.07, 545.29 390.96, 547.14 394.07 C 548.99 397.17, 550.72 398.13, 553.14 398.14 C 555.57 398.16, 557.05 397.45, 559.27 394.14 C 561.50 390.83, 562.34 387.94, 564.27 381.61 C 566.21 375.27, 567.17 370.93, 568.96 362.45 C 570.74 353.97, 571.37 348.59, 573.21 339.20 C 575.05 329.81, 576.16 324.22, 578.15 315.48 C 580.15 306.74, 581.30 302.20, 583.18 295.50 C 585.06 288.80, 586.31 285.49, 587.55 281.98 C 588.79 278.47, 588.86 277.70, 589.40 277.94 C 589.94 278.18, 589.69 279.51, 590.25 283.19 C 590.81 286.87, 591.45 289.94, 592.20 296.35 C 592.94 302.76, 593.44 307.12, 593.96 315.23 C 594.48 323.35, 594.64 328.50, 594.79 336.93 C 594.94 345.35, 594.62 350.09, 594.72 357.36 C 594.81 364.64, 594.69 368.36, 595.28 373.29 C 595.87 378.22, 596.13 380.28, 597.67 382.01 C 599.20 383.74, 600.73 384.00, 602.96 381.93 C 605.19 379.86, 606.05 377.46, 608.82 371.66 C 611.60 365.86, 613.36 361.22, 616.84 352.92 C 620.31 344.63, 622.50 338.99, 626.20 330.20 C 629.89 321.42, 631.97 316.49, 635.33 309.00 C 638.70 301.52, 640.49 297.65, 643.03 292.78 C 645.57 287.91, 646.92 286.28, 648.03 284.65 C 649.13 283.02, 648.45 283.00, 648.57 284.63 C 648.69 286.26, 648.75 287.91, 648.63 292.80 C 648.51 297.69, 648.36 301.21, 647.96 309.07 C 647.55 316.94, 647.17 322.16, 646.61 332.11 C 646.05 342.06, 645.43 348.37, 645.16 358.81 C 644.89 369.25, 644.72 375.12, 645.26 384.30 C 645.81 393.49, 646.21 398.42, 647.89 404.74 C 649.57 411.07, 650.66 413.55, 653.68 415.94 C 656.70 418.33, 659.06 418.21, 662.99 416.68 C 666.93 415.15, 669.07 413.20, 673.36 408.30 C 677.64 403.40, 679.90 399.87, 684.40 392.17 C 688.89 384.47, 691.24 379.30, 695.82 369.79 C 700.40 360.28, 702.97 354.32, 707.31 344.63 C 711.65 334.93, 713.88 329.58, 717.52 321.33 C 721.16 313.07, 722.89 308.92, 725.52 303.35 C 728.15 297.79, 729.48 295.86, 730.67 293.50 C 731.86 291.14, 731.18 290.85, 731.49 291.56 C 731.80 292.27, 731.48 293.52, 732.23 297.05 C 732.99 300.59, 734.05 303.37, 735.26 309.23 C 736.47 315.10, 737.21 318.96, 738.28 326.40 C 739.34 333.84, 739.93 338.62, 740.59 346.44 C 741.24 354.25, 741.66 358.53, 741.55 365.48 C 741.45 372.44, 740.82 376.28, 740.06 381.22 C 739.29 386.17, 738.17 388.44, 737.72 390.22 C 737.27 392.00, 738.21 391.91, 737.81 390.11 C 737.40 388.31, 736.66 386.47, 735.70 381.23 C 734.75 375.98, 733.76 371.88, 733.04 363.89 C 732.31 355.90, 732.01 350.72, 732.08 341.26 C 732.15 331.80, 732.23 326.17, 733.37 316.60 C 734.51 307.02, 735.49 301.76, 737.79 293.38 C 740.09 284.99, 741.85 280.73, 744.85 274.67 C 747.86 268.62, 749.80 266.09, 752.83 263.10 C 755.86 260.10, 757.06 259.56, 760.01 259.70 C 762.95 259.84, 764.48 260.71, 767.57 263.82 C 770.66 266.92, 772.64 269.53, 775.43 275.21 C 778.23 280.89, 779.73 284.72, 781.53 292.22 C 783.32 299.72, 784.33 304.42, 784.40 312.69 C 784.47 320.97, 783.93 325.52, 781.87 333.59 C 779.82 341.66, 778.02 345.83, 774.11 353.04 C 770.20 360.24, 767.70 363.86, 762.33 369.61 C 756.97 375.36, 753.51 377.92, 747.29 381.77 C 741.06 385.62, 737.36 387.16, 731.22 388.84 C 725.09 390.53, 721.81 390.52, 716.60 390.19 C 711.40 389.86, 708.87 388.56, 705.21 387.18 C 701.56 385.80, 700.31 384.61, 698.34 383.29 C 696.38 381.98, 696.23 380.96, 695.38 380.60 C 694.53 380.23, 693.95 380.35, 694.09 381.46 C 694.23 382.57, 694.09 384.35, 696.08 386.16 C 698.07 387.97, 699.96 389.14, 704.04 390.50 C 708.12 391.86, 710.92 392.85, 716.48 392.98 C 722.05 393.11, 725.49 393.02, 731.88 391.14 C 738.27 389.27, 742.05 387.64, 748.43 383.61 C 754.82 379.58, 758.34 376.92, 763.82 370.99 C 769.30 365.07, 771.84 361.36, 775.84 353.98 C 779.84 346.59, 781.67 342.35, 783.81 334.09 C 785.95 325.83, 786.51 321.17, 786.53 312.69 C 786.54 304.20, 785.59 299.42, 783.88 291.68 C 782.17 283.94, 780.81 280.00, 777.98 273.99 C 775.15 267.97, 773.32 265.07, 769.74 261.61 C 766.17 258.15, 763.86 256.77, 760.10 256.69 C 756.35 256.61, 754.42 257.81, 750.97 261.22 C 747.52 264.62, 745.87 267.38, 742.86 273.71 C 739.85 280.04, 738.20 284.34, 735.93 292.88 C 733.66 301.41, 732.70 306.70, 731.51 316.37 C 730.33 326.04, 730.23 331.69, 730.01 341.23 C 729.78 350.77, 729.91 355.97, 730.40 364.09 C 730.89 372.21, 731.47 376.36, 732.46 381.82 C 733.45 387.27, 733.82 389.45, 735.34 391.38 C 736.87 393.32, 738.56 393.44, 740.10 391.50 C 741.65 389.56, 742.26 386.88, 743.05 381.68 C 743.83 376.48, 744.04 372.59, 744.02 365.50 C 744.01 358.41, 743.58 354.13, 742.97 346.24 C 742.35 338.35, 741.82 333.58, 740.96 326.05 C 740.09 318.52, 739.59 314.63, 738.63 308.62 C 737.66 302.61, 737.33 299.67, 736.12 295.99 C 734.90 292.32, 734.17 291.06, 732.55 290.23 C 730.94 289.40, 729.87 289.40, 728.04 291.84 C 726.21 294.27, 725.83 296.64, 723.38 302.39 C 720.94 308.14, 719.33 312.28, 715.80 320.58 C 712.27 328.89, 710.05 334.23, 705.72 343.91 C 701.39 353.59, 698.79 359.55, 694.15 368.98 C 689.51 378.41, 687.06 383.53, 682.50 391.04 C 677.94 398.56, 675.48 401.93, 671.36 406.54 C 667.24 411.14, 665.10 412.60, 661.89 414.07 C 658.69 415.55, 657.69 415.90, 655.32 413.91 C 652.95 411.93, 651.66 410.11, 650.03 404.17 C 648.40 398.22, 647.77 393.25, 647.16 384.18 C 646.55 375.12, 646.69 369.25, 646.99 358.86 C 647.29 348.47, 647.93 342.16, 648.65 332.24 C 649.37 322.32, 649.92 317.13, 650.59 309.25 C 651.26 301.38, 651.92 297.96, 651.99 292.86 C 652.07 287.77, 652.12 285.80, 650.95 283.78 C 649.79 281.77, 648.21 281.25, 646.16 282.81 C 644.11 284.37, 643.26 286.52, 640.71 291.59 C 638.15 296.65, 636.67 300.58, 633.39 308.14 C 630.10 315.70, 628.03 320.62, 624.26 329.38 C 620.50 338.14, 618.19 343.76, 614.56 351.94 C 610.93 360.13, 608.96 364.77, 606.12 370.33 C 603.29 375.89, 601.70 377.65, 600.39 379.75 C 599.08 381.84, 600.01 382.15, 599.57 380.80 C 599.13 379.44, 598.69 377.66, 598.20 372.96 C 597.70 368.27, 597.34 364.52, 597.11 357.31 C 596.88 350.09, 597.17 345.33, 597.04 336.89 C 596.92 328.45, 596.84 323.27, 596.49 315.10 C 596.14 306.93, 595.86 302.57, 595.29 296.04 C 594.73 289.50, 594.78 286.33, 593.67 282.43 C 592.56 278.53, 591.49 276.86, 589.74 276.54 C 587.98 276.23, 586.64 277.19, 584.88 280.86 C 583.12 284.53, 582.68 288.07, 580.95 294.90 C 579.21 301.74, 578.15 306.26, 576.21 315.04 C 574.26 323.83, 573.14 329.43, 571.23 338.80 C 569.31 348.18, 568.61 353.56, 566.65 361.94 C 564.68 370.31, 563.51 374.62, 561.41 380.67 C 559.31 386.73, 557.80 389.22, 556.15 392.21 C 554.49 395.20, 554.29 395.59, 553.13 395.62 C 551.97 395.65, 551.61 395.07, 550.36 392.35 C 549.10 389.63, 547.99 387.17, 546.87 382.03 C 545.75 376.88, 545.27 373.14, 544.75 366.62 C 544.24 360.09, 544.24 356.27, 544.29 349.40 C 544.35 342.52, 544.66 338.44, 545.02 332.25 C 545.38 326.05, 546.01 322.91, 546.08 318.44 C 546.16 313.96, 546.40 312.44, 545.40 309.87 C 544.40 307.31, 543.38 306.31, 541.07 305.62 C 538.75 304.93, 537.49 305.19, 533.82 306.42 C 530.16 307.64, 527.93 309.22, 522.75 311.73 C 517.57 314.24, 514.43 315.83, 507.94 318.97 C 501.44 322.12, 497.04 323.87, 490.26 327.45 C 483.47 331.03, 480.01 333.18, 474.01 336.87 C 468.01 340.56, 464.84 342.81, 460.28 345.89 C 455.72 348.98, 453.71 350.33, 451.22 352.31 C 448.73 354.29, 448.29 354.76, 447.83 355.80 C 447.36 356.85, 447.72 357.52, 448.91 357.54" style="stroke: black; fill: black; --darkreader-inline-stroke: var(--darkreader-text-000000, #e8e6e3); --darkreader-inline-fill: var(--darkreader-text-000000, #e8e6e3);" data-darkreader-inline-stroke="" data-darkreader-inline-fill=""/></g></svg>